Facade-Regular.ufo
<glyph name="four" format="2">
  <advance width="750"/>
  <unicode hex="0034"/>
  <outline>
    <contour>
      <point x="456" y="0" type="line"/>
      <point x="564" y="0" type="line"/>
      <point x="564" y="242" type="line"/>
      <point x="696" y="242" type="line"/>
      <point x="696" y="338" type="line"/>
      <point x="561" y="338" type="line"/>
      <point x="561" y="594" type="line"/>
      <point x="459" y="540" type="line"/>
      <point x="459" y="338" type="line"/>
      <point x="143" y="338" type="line"/>
      <point x="168" y="297" type="line"/>
      <point x="481" y="900" type="line"/>
      <point x="361" y="900" type="line"/>
      <point x="24" y="242" type="line"/>
      <point x="456" y="242" type="line"/>
    </contour>
  </outline>
</glyph>
<glyph name="less" format="2">
  <advance width="750"/>
  <unicode hex="003C"/>
  <outline>
    <contour>
      <point x="660" y="158" type="line"/>
      <point x="660" y="256" type="line"/>
      <point x="360" y="400" type="line" smooth="yes"/>
      <point x="323" y="418"/>
      <point x="280" y="435"/>
      <point x="239" y="451" type="curve"/>
      <point x="280" y="468"/>
      <point x="323" y="485"/>
      <point x="360" y="503" type="curve" smooth="yes"/>
      <point x="660" y="648" type="line"/>
      <point x="660" y="744" type="line"/>
      <point x="60" y="450" type="line"/>
    </contour>
  </outline>
</glyph>
<glyph name="O" format="2">
  <advance width="1060"/>
  <unicode hex="004F"/>
  <anchor x="530" y="0" name="bottom"/>
  <anchor x="530" y="450" name="center"/>
  <anchor x="560" y="0" name="ogonek"/>
  <anchor x="530" y="900" name="top"/>
  <anchor x="530" y="510" name="top-vertical"/>
  <anchor x="60" y="900" name="topleft"/>
  <anchor x="1000" y="900" name="topright"/>
  <outline>
    <contour>
      <point x="530" y="-18" type="curve" smooth="yes"/>
      <point x="790" y="-18"/>
      <point x="1000" y="191"/>
      <point x="1000" y="450" type="curve" smooth="yes"/>
      <point x="1000" y="709"/>
      <point x="790" y="918"/>
      <point x="530" y="918" type="curve" smooth="yes"/>
      <point x="270" y="918"/>
      <point x="60" y="709"/>
      <point x="60" y="450" type="curve" smooth="yes"/>
      <point x="60" y="191"/>
      <point x="270" y="-18"/>
    </contour>
    <contour>
      <point x="530" y="90" type="curve" smooth="yes"/>
      <point x="332" y="90"/>
      <point x="178" y="251"/>
      <point x="178" y="450" type="curve" smooth="yes"/>
      <point x="178" y="649"/>
      <point x="332" y="810"/>
      <point x="530" y="810" type="curve" smooth="yes"/>
      <point x="728" y="810"/>
      <point x="882" y="649"/>
      <point x="882" y="450" type="curve" smooth="yes"/>
      <point x="882" y="251"/>
      <point x="728" y="90"/>
    </contour>
  </outline>
</glyph>
<glyph name="U" format="2">
  <advance width="800"/>
  <unicode hex="0055"/>
  <anchor x="400" y="0" name="bottom"/>
  <anchor x="430" y="0" name="ogonek"/>
  <anchor x="400" y="900" name="top"/>
  <anchor x="400" y="720" name="top-vertical"/>
  <anchor x="635" y="900" name="topright"/>
  <outline>
    <contour>
      <point x="400" y="-12" type="curve" smooth="yes"/>
      <point x="571" y="-12"/>
      <point x="692" y="110"/>
      <point x="692" y="287" type="curve" smooth="yes"/>
      <point x="692" y="900" type="line"/>
      <point x="582" y="900" type="line"/>
      <point x="582" y="283" type="line" smooth="yes"/>
      <point x="582" y="168"/>
      <point x="505" y="90"/>
      <point x="402" y="90" type="curve" smooth="yes"/>
      <point x="298" y="90"/>
      <point x="222" y="168"/>
      <point x="222" y="287" type="curve" smooth="yes"/>
      <point x="222" y="900" type="line"/>
      <point x="108" y="900" type="line"/>
      <point x="108" y="283" type="line" smooth="yes"/>
      <point x="108" y="109"/>
      <point x="230" y="-12"/>
    </contour>
  </outline>
</glyph>
<glyph name="V" format="2">
  <advance width="750"/>
  <unicode hex="0056"/>
  <outline>
    <contour>
      <point x="374" y="-30" type="line"/>
      <point x="376" y="-30" type="line"/>
      <point x="738" y="900" type="line"/>
      <point x="625" y="900" type="line"/>
      <point x="414" y="358" type="line" smooth="yes"/>
      <point x="395" y="308"/>
      <point x="382" y="272"/>
      <point x="363" y="190" type="curve"/>
      <point x="395" y="190" type="line"/>
      <point x="376" y="272"/>
      <point x="363" y="308"/>
      <point x="344" y="358" type="curve" smooth="yes"/>
      <point x="132" y="900" type="line"/>
      <point x="12" y="900" type="line"/>
    </contour>
  </outline>
</glyph>
<glyph name="Z" format="2">
  <advance width="660"/>
  <unicode hex="005A"/>
  <anchor x="315" y="0" name="bottom"/>
  <anchor x="324" y="450" name="center"/>
  <anchor x="345" y="900" name="top"/>
  <outline>
    <contour>
      <point x="42" y="0" type="line"/>
      <point x="588" y="0" type="line"/>
      <point x="588" y="102" type="line"/>
      <point x="160" y="102" type="line"/>
      <point x="188" y="56" type="line"/>
      <point x="606" y="900" type="line"/>
      <point x="84" y="900" type="line"/>
      <point x="84" y="798" type="line"/>
      <point x="488" y="798" type="line"/>
      <point x="460" y="844" type="line"/>
    </contour>
  </outline>
</glyph>
<glyph name="a" format="2">
  <advance width="760"/>
  <unicode hex="0061"/>
  <anchor x="371" y="0" name="bottom"/>
  <anchor x="614" y="0" name="ogonek"/>
  <anchor x="371" y="600" name="top"/>
  <outline>
    <contour>
      <point x="353" y="-8" type="curve" smooth="yes"/>
      <point x="458" y="-8"/>
      <point x="549" y="45"/>
      <point x="602" y="125" type="curve"/>
      <point x="564" y="150" type="line"/>
      <point x="564" y="0" type="line"/>
      <point x="664" y="0" type="line"/>
      <point x="664" y="600" type="line"/>
      <point x="564" y="600" type="line"/>
      <point x="564" y="450" type="line"/>
      <point x="602" y="475" type="line"/>
      <point x="549" y="555"/>
      <point x="458" y="608"/>
      <point x="353" y="608" type="curve" smooth="yes"/>
      <point x="188" y="608"/>
      <point x="54" y="470"/>
      <point x="54" y="300" type="curve" smooth="yes"/>
      <point x="54" y="130"/>
      <point x="188" y="-8"/>
    </contour>
    <contour>
      <point x="367" y="90" type="curve" smooth="yes"/>
      <point x="253" y="90"/>
      <point x="162" y="184"/>
      <point x="162" y="300" type="curve" smooth="yes"/>
      <point x="162" y="416"/>
      <point x="253" y="510"/>
      <point x="367" y="510" type="curve" smooth="yes"/>
      <point x="481" y="510"/>
      <point x="572" y="416"/>
      <point x="572" y="300" type="curve" smooth="yes"/>
      <point x="572" y="184"/>
      <point x="481" y="90"/>
    </contour>
  </outline>
</glyph>
<glyph name="u" format="2">
  <advance width="720"/>
  <unicode hex="0075"/>
  <anchor x="360" y="0" name="bottom"/>
  <anchor x="574" y="0" name="ogonek"/>
  <anchor x="360" y="600" name="top"/>
  <anchor x="570" y="600" name="topright"/>
  <outline>
    <contour>
      <point x="325" y="-12" type="curve" smooth="yes"/>
      <point x="454" y="-12"/>
      <point x="566" y="85"/>
      <point x="566" y="259" type="curve"/>
      <point x="516" y="267" type="line"/>
      <point x="516" y="152"/>
      <point x="438" y="90"/>
      <point x="354" y="90" type="curve" smooth="yes"/>
      <point x="251" y="90"/>
      <point x="192" y="175"/>
      <point x="192" y="270" type="curve" smooth="yes"/>
      <point x="192" y="600" type="line"/>
      <point x="84" y="600" type="line"/>
      <point x="84" y="255" type="line" smooth="yes"/>
      <point x="84" y="86"/>
      <point x="198" y="-12"/>
    </contour>
    <contour>
      <point x="524" y="0" type="line"/>
      <point x="624" y="0" type="line"/>
      <point x="624" y="600" type="line"/>
      <point x="516" y="600" type="line"/>
      <point x="516" y="161" type="line"/>
      <point x="524" y="138" type="line"/>
    </contour>
  </outline>
</glyph>
<glyph name="v" format="2">
  <advance width="630"/>
  <unicode hex="0076"/>
  <outline>
    <contour>
      <point x="315" y="-30" type="line"/>
      <point x="618" y="600" type="line"/>
      <point x="503" y="600" type="line"/>
      <point x="380" y="340" type="line" smooth="yes"/>
      <point x="354" y="285"/>
      <point x="330" y="238"/>
      <point x="307" y="149" type="curve"/>
      <point x="329" y="148" type="line"/>
      <point x="306" y="238"/>
      <point x="283" y="284"/>
      <point x="257" y="340" type="curve" smooth="yes"/>
      <point x="135" y="600" type="line"/>
      <point x="12" y="600" type="line"/>
    </contour>
  </outline>
</glyph>
<glyph name="sterling" format="2">
  <advance width="750"/>
  <unicode hex="00A3"/>
  <outline>
    <contour>
      <point x="151" y="0" type="curve"/>
      <point x="660" y="0" type="line"/>
      <point x="660" y="96" type="line"/>
      <point x="280" y="96" type="line"/>
      <point x="193" y="0" type="line"/>
      <point x="292" y="39"/>
      <point x="366" y="85"/>
      <point x="366" y="226" type="curve" smooth="yes"/>
      <point x="366" y="339"/>
      <point x="319" y="501"/>
      <point x="319" y="611" type="curve" smooth="yes"/>
      <point x="319" y="746"/>
      <point x="389" y="810"/>
      <point x="474" y="810" type="curve" smooth="yes"/>
      <point x="548" y="810"/>
      <point x="598" y="761"/>
      <point x="631" y="692" type="curve"/>
      <point x="665" y="830" type="line"/>
      <point x="616" y="881"/>
      <point x="554" y="912"/>
      <point x="476" y="912" type="curve" smooth="yes"/>
      <point x="331" y="912"/>
      <point x="211" y="803"/>
      <point x="211" y="620" type="curve" smooth="yes"/>
      <point x="211" y="498"/>
      <point x="264" y="344"/>
      <point x="264" y="225" type="curve" smooth="yes"/>
      <point x="264" y="129"/>
      <point x="230" y="84"/>
    </contour>
    <contour>
      <point x="90" y="408" type="line"/>
      <point x="600" y="408" type="line"/>
      <point x="600" y="492" type="line"/>
      <point x="90" y="492" type="line"/>
    </contour>
  </outline>
</glyph>
<glyph name="registered" format="2">
  <advance width="600"/>
  <unicode hex="00AE"/>
  <outline>
    <contour>
      <point x="300" y="402" type="curve" smooth="yes"/>
      <point x="446" y="402"/>
      <point x="564" y="517"/>
      <point x="564" y="660" type="curve" smooth="yes"/>
      <point x="564" y="803"/>
      <point x="446" y="918"/>
      <point x="300" y="918" type="curve" smooth="yes"/>
      <point x="154" y="918"/>
      <point x="36" y="803"/>
      <point x="36" y="660" type="curve" smooth="yes"/>
      <point x="36" y="517"/>
      <point x="154" y="402"/>
    </contour>
    <contour>
      <point x="300" y="462" type="curve" smooth="yes"/>
      <point x="191" y="462"/>
      <point x="102" y="551"/>
      <point x="102" y="660" type="curve" smooth="yes"/>
      <point x="102" y="769"/>
      <point x="191" y="858"/>
      <point x="300" y="858" type="curve" smooth="yes"/>
      <point x="409" y="858"/>
      <point x="498" y="769"/>
      <point x="498" y="660" type="curve" smooth="yes"/>
      <point x="498" y="551"/>
      <point x="409" y="462"/>
    </contour>
    <contour>
      <point x="209" y="546" type="line"/>
      <point x="269" y="546" type="line"/>
      <point x="269" y="786" type="line"/>
      <point x="209" y="786" type="line"/>
    </contour>
    <contour>
      <point x="346" y="546" type="line"/>
      <point x="415" y="546" type="line"/>
      <point x="352" y="636" type="line"/>
      <point x="284" y="636" type="line"/>
    </contour>
    <contour>
      <point x="236" y="616" type="line"/>
      <point x="307" y="616" type="line" smooth="yes"/>
      <point x="366" y="616"/>
      <point x="405" y="649"/>
      <point x="405" y="700" type="curve" smooth="yes"/>
      <point x="405" y="747"/>
      <point x="368" y="786"/>
      <point x="307" y="786" type="curve" smooth="yes"/>
      <point x="236" y="786" type="line"/>
      <point x="236" y="734" type="line"/>
      <point x="305" y="734" type="line" smooth="yes"/>
      <point x="329" y="734"/>
      <point x="345" y="721"/>
      <point x="345" y="699" type="curve" smooth="yes"/>
      <point x="345" y="680"/>
      <point x="331" y="664"/>
      <point x="305" y="664" type="curve" smooth="yes"/>
      <point x="236" y="664" type="line"/>
    </contour>
  </outline>
</glyph>
<glyph name="micro" format="2">
  <advance width="750"/>
  <unicode hex="00B5"/>
  <unicode hex="03BC"/>
  <outline>
    <contour>
      <point x="96" y="-300" type="line"/>
      <point x="204" y="-300" type="line"/>
      <point x="204" y="113" type="line"/>
      <point x="183" y="92" type="line"/>
      <point x="223" y="25"/>
      <point x="288" y="-12"/>
      <point x="360" y="-12" type="curve" smooth="yes"/>
      <point x="444" y="-12"/>
      <point x="522" y="39"/>
      <point x="556" y="134" type="curve"/>
      <point x="530" y="135" type="line"/>
      <point x="547" y="41"/>
      <point x="614" y="-12"/>
      <point x="701" y="-12" type="curve"/>
      <point x="723" y="81" type="line"/>
      <point x="672" y="81"/>
      <point x="636" y="105"/>
      <point x="636" y="178" type="curve" smooth="yes"/>
      <point x="636" y="600" type="line"/>
      <point x="528" y="600" type="line"/>
      <point x="528" y="267" type="line" smooth="yes"/>
      <point x="528" y="152"/>
      <point x="450" y="90"/>
      <point x="366" y="90" type="curve" smooth="yes"/>
      <point x="263" y="90"/>
      <point x="204" y="175"/>
      <point x="204" y="270" type="curve" smooth="yes"/>
      <point x="204" y="600" type="line"/>
      <point x="96" y="600" type="line"/>
    </contour>
  </outline>
</glyph>
<glyph name="ae" format="2">
  <advance width="1140"/>
  <unicode hex="00E6"/>
  <anchor x="570" y="0" name="bottom"/>
  <anchor x="570" y="600" name="top"/>
  <outline>
    <contour>
      <point x="812" y="-12" type="curve" smooth="yes"/>
      <point x="894" y="-12"/>
      <point x="970" y="15"/>
      <point x="1028" y="62" type="curve"/>
      <point x="998" y="185" type="line"/>
      <point x="958" y="128"/>
      <point x="889" y="90"/>
      <point x="813" y="90" type="curve" smooth="yes"/>
      <point x="689" y="90"/>
      <point x="592" y="187"/>
      <point x="592" y="308" type="curve"/>
      <point x="586" y="308" type="line"/>
      <point x="586" y="418"/>
      <point x="676" y="516"/>
      <point x="789" y="516" type="curve" smooth="yes"/>
      <point x="897" y="516"/>
      <point x="990" y="428"/>
      <point x="990" y="314" type="curve"/>
      <point x="1012" y="351" type="line"/>
      <point x="974" y="357"/>
      <point x="937" y="360"/>
      <point x="899" y="360" type="curve" smooth="yes"/>
      <point x="700" y="360" type="line" smooth="yes"/>
      <point x="643" y="360"/>
      <point x="585" y="352"/>
      <point x="528" y="340" type="curve"/>
      <point x="528" y="290" type="line"/>
      <point x="585" y="278"/>
      <point x="643" y="270"/>
      <point x="700" y="270" type="curve" smooth="yes"/>
      <point x="1092" y="270" type="line"/>
      <point x="1092" y="314" type="line" smooth="yes"/>
      <point x="1092" y="483"/>
      <point x="956" y="612"/>
      <point x="790" y="612" type="curve" smooth="yes"/>
      <point x="699" y="612"/>
      <point x="618" y="570"/>
      <point x="564" y="505" type="curve"/>
      <point x="516" y="570"/>
      <point x="431" y="608"/>
      <point x="328" y="608" type="curve" smooth="yes"/>
      <point x="237" y="608"/>
      <point x="159" y="579"/>
      <point x="102" y="541" type="curve"/>
      <point x="130" y="429" type="line"/>
      <point x="175" y="478"/>
      <point x="242" y="512"/>
      <point x="323" y="512" type="curve" smooth="yes"/>
      <point x="428" y="512"/>
      <point x="489" y="455"/>
      <point x="503" y="381" type="curve"/>
      <point x="495" y="336" type="line"/>
      <point x="444" y="363"/>
      <point x="382" y="378"/>
      <point x="314" y="378" type="curve" smooth="yes"/>
      <point x="165" y="378"/>
      <point x="54" y="306"/>
      <point x="54" y="184" type="curve" smooth="yes"/>
      <point x="54" y="69"/>
      <point x="153" y="-8"/>
      <point x="284" y="-8" type="curve" smooth="yes"/>
      <point x="393" y="-8"/>
      <point x="492" y="35"/>
      <point x="550" y="121" type="curve"/>
      <point x="606" y="40"/>
      <point x="700" y="-12"/>
    </contour>
    <contour>
      <point x="294" y="82" type="curve" smooth="yes"/>
      <point x="208" y="82"/>
      <point x="162" y="128"/>
      <point x="162" y="184" type="curve" smooth="yes"/>
      <point x="162" y="251"/>
      <point x="228" y="288"/>
      <point x="321" y="288" type="curve" smooth="yes"/>
      <point x="381" y="288"/>
      <point x="447" y="273"/>
      <point x="499" y="249" type="curve"/>
      <point x="506" y="214" type="line"/>
      <point x="479" y="136"/>
      <point x="388" y="82"/>
    </contour>
  </outline>
</glyph>
<glyph name="thorn" format="2">
  <advance width="760"/>
  <unicode hex="00FE"/>
  <outline>
    <contour>
      <point x="96" y="-300" type="line"/>
      <point x="204" y="-300" type="line"/>
      <point x="204" y="147" type="line"/>
      <point x="158" y="124" type="line"/>
      <point x="210" y="46"/>
      <point x="302" y="-8"/>
      <point x="407" y="-8" type="curve" smooth="yes"/>
      <point x="572" y="-8"/>
      <point x="706" y="130"/>
      <point x="706" y="300" type="curve" smooth="yes"/>
      <point x="706" y="470"/>
      <point x="572" y="608"/>
      <point x="407" y="608" type="curve" smooth="yes"/>
      <point x="302" y="608"/>
      <point x="211" y="555"/>
      <point x="158" y="475" type="curve"/>
      <point x="204" y="450" type="line"/>
      <point x="204" y="960" type="line"/>
      <point x="96" y="960" type="line"/>
    </contour>
    <contour>
      <point x="393" y="90" type="curve" smooth="yes"/>
      <point x="279" y="90"/>
      <point x="188" y="184"/>
      <point x="188" y="300" type="curve" smooth="yes"/>
      <point x="188" y="416"/>
      <point x="279" y="510"/>
      <point x="393" y="510" type="curve" smooth="yes"/>
      <point x="507" y="510"/>
      <point x="598" y="416"/>
      <point x="598" y="300" type="curve" smooth="yes"/>
      <point x="598" y="184"/>
      <point x="507" y="90"/>
    </contour>
  </outline>
</glyph>
<glyph name="Schwa" format="2">
  <advance width="1050"/>
  <unicode hex="018F"/>
  <outline>
    <contour>
      <point x="520" y="-18" type="curve" smooth="yes"/>
      <point x="780" y="-18"/>
      <point x="990" y="191"/>
      <point x="990" y="450" type="curve" smooth="yes"/>
      <point x="990" y="709"/>
      <point x="780" y="918"/>
      <point x="520" y="918" type="curve" smooth="yes"/>
      <point x="392" y="918"/>
      <point x="277" y="867"/>
      <point x="192" y="785" type="curve"/>
      <point x="225" y="647" type="line"/>
      <point x="287" y="745"/>
      <point x="395" y="810"/>
      <point x="520" y="810" type="curve" smooth="yes"/>
      <point x="718" y="810"/>
      <point x="872" y="649"/>
      <point x="872" y="450" type="curve" smooth="yes"/>
      <point x="872" y="251"/>
      <point x="718" y="90"/>
      <point x="520" y="90" type="curve" smooth="yes"/>
      <point x="325" y="90"/>
      <point x="172" y="251"/>
      <point x="172" y="450" type="curve"/>
      <point x="124" y="408" type="line"/>
      <point x="754" y="408" type="line" smooth="yes"/>
      <point x="811" y="408"/>
      <point x="869" y="416"/>
      <point x="926" y="428" type="curve"/>
      <point x="926" y="490" type="line"/>
      <point x="869" y="502"/>
      <point x="811" y="510"/>
      <point x="754" y="510" type="curve" smooth="yes"/>
      <point x="54" y="510" type="line"/>
      <point x="54" y="455" type="line" smooth="yes"/>
      <point x="54" y="191"/>
      <point x="263" y="-18"/>
    </contour>
  </outline>
</glyph>
<glyph name="schwa" format="2">
  <advance width="710"/>
  <unicode hex="0259"/>
  <anchor x="352" y="0" name="bottom"/>
  <anchor x="66" y="590" name="ogonek"/>
  <anchor x="352" y="600" name="top"/>
  <outline>
    <contour>
      <point x="351" y="-12" type="curve" smooth="yes"/>
      <point x="520" y="-12"/>
      <point x="656" y="124"/>
      <point x="656" y="294" type="curve" smooth="yes"/>
      <point x="656" y="473"/>
      <point x="517" y="612"/>
      <point x="328" y="612" type="curve" smooth="yes"/>
      <point x="246" y="612"/>
      <point x="170" y="585"/>
      <point x="112" y="538" type="curve"/>
      <point x="142" y="415" type="line"/>
      <point x="182" y="472"/>
      <point x="251" y="510"/>
      <point x="327" y="510" type="curve" smooth="yes"/>
      <point x="451" y="510"/>
      <point x="548" y="413"/>
      <point x="548" y="292" type="curve"/>
      <point x="554" y="292" type="line"/>
      <point x="554" y="182"/>
      <point x="464" y="84"/>
      <point x="351" y="84" type="curve" smooth="yes"/>
      <point x="243" y="84"/>
      <point x="150" y="172"/>
      <point x="150" y="286" type="curve"/>
      <point x="128" y="249" type="line"/>
      <point x="166" y="243"/>
      <point x="203" y="240"/>
      <point x="241" y="240" type="curve" smooth="yes"/>
      <point x="440" y="240" type="line" smooth="yes"/>
      <point x="497" y="240"/>
      <point x="555" y="248"/>
      <point x="612" y="260" type="curve"/>
      <point x="612" y="310" type="line"/>
      <point x="555" y="322"/>
      <point x="497" y="330"/>
      <point x="440" y="330" type="curve" smooth="yes"/>
      <point x="48" y="330" type="line"/>
      <point x="48" y="286" type="line" smooth="yes"/>
      <point x="48" y="117"/>
      <point x="185" y="-12"/>
    </contour>
  </outline>
</glyph>
<glyph name="gravecomb" format="2">
  <unicode hex="0300"/>
  <anchor x="422" y="600" name="_top"/>
  <outline>
    <contour>
      <point x="377" y="690" type="line"/>
      <point x="468" y="690" type="line"/>
      <point x="378" y="870" type="line"/>
      <point x="252" y="870" type="line"/>
    </contour>
  </outline>
</glyph>
<glyph name="circumflexcomb" format="2">
  <unicode hex="0302"/>
  <anchor x="360" y="600" name="_top"/>
  <outline>
    <contour>
      <point x="171" y="690" type="line"/>
      <point x="281" y="690" type="line"/>
      <point x="309" y="718"/>
      <point x="329" y="746"/>
      <point x="358" y="787" type="curve"/>
      <point x="387" y="746"/>
      <point x="407" y="718"/>
      <point x="435" y="690" type="curve"/>
      <point x="549" y="690" type="line"/>
      <point x="360" y="909" type="line"/>
    </contour>
  </outline>
</glyph>
<glyph name="tildecomb" format="2">
  <unicode hex="0303"/>
  <anchor x="360" y="600" name="_top"/>
  <outline>
    <contour>
      <point x="176" y="683" type="line"/>
      <point x="196" y="731"/>
      <point x="227" y="759"/>
      <point x="272" y="759" type="curve" smooth="yes"/>
      <point x="329" y="759"/>
      <point x="387" y="705"/>
      <point x="454" y="705" type="curve" smooth="yes"/>
      <point x="507" y="705"/>
      <point x="549" y="733"/>
      <point x="576" y="786" type="curve"/>
      <point x="544" y="877" type="line"/>
      <point x="524" y="829"/>
      <point x="493" y="801"/>
      <point x="448" y="801" type="curve" smooth="yes"/>
      <point x="391" y="801"/>
      <point x="333" y="855"/>
      <point x="266" y="855" type="curve" smooth="yes"/>
      <point x="213" y="855"/>
      <point x="171" y="827"/>
      <point x="144" y="774" type="curve"/>
    </contour>
  </outline>
</glyph>
<glyph name="pi" format="2">
  <advance width="720"/>
  <unicode hex="03C0"/>
  <anchor x="360" y="0" name="bottom"/>
  <anchor x="360" y="600" name="top"/>
  <outline>
    <contour>
      <point x="516" y="0" type="line"/>
      <point x="624" y="0" type="line"/>
      <point x="624" y="600" type="line"/>
      <point x="516" y="600" type="line"/>
    </contour>
    <contour>
      <point x="96" y="0" type="line"/>
      <point x="204" y="0" type="line"/>
      <point x="204" y="600" type="line"/>
      <point x="96" y="600" type="line"/>
    </contour>
    <contour>
      <point x="156" y="498" type="line"/>
      <point x="564" y="498" type="line"/>
      <point x="564" y="600" type="line"/>
      <point x="156" y="600" type="line"/>
    </contour>
  </outline>
</glyph>
<glyph name="Germandbls" format="2">
  <advance width="990"/>
  <unicode hex="1E9E"/>
  <outline>
    <contour>
      <point x="612" y="-12" type="curve" smooth="yes"/>
      <point x="783" y="-12"/>
      <point x="922" y="122"/>
      <point x="922" y="294" type="curve" smooth="yes"/>
      <point x="922" y="455"/>
      <point x="797" y="577"/>
      <point x="649" y="590" type="curve"/>
      <point x="659" y="540" type="line"/>
      <point x="852" y="900" type="line"/>
      <point x="138" y="900" type="line"/>
      <point x="138" y="0" type="line"/>
      <point x="252" y="0" type="line"/>
      <point x="252" y="804" type="line"/>
      <point x="686" y="804" type="line"/>
      <point x="515" y="473" type="line"/>
      <point x="542" y="488"/>
      <point x="575" y="498"/>
      <point x="612" y="498" type="curve" smooth="yes"/>
      <point x="724" y="498"/>
      <point x="814" y="406"/>
      <point x="814" y="294" type="curve" smooth="yes"/>
      <point x="814" y="181"/>
      <point x="725" y="90"/>
      <point x="612" y="90" type="curve" smooth="yes"/>
      <point x="508" y="90"/>
      <point x="422" y="166"/>
      <point x="408" y="269" type="curve"/>
      <point x="342" y="138" type="line"/>
      <point x="397" y="45"/>
      <point x="497" y="-12"/>
    </contour>
  </outline>
</glyph>
<glyph name="numero" format="2">
  <advance width="1470"/>
  <unicode hex="2116"/>
  <outline>
    <contour>
      <point x="864" y="-30" type="line"/>
      <point x="864" y="900" type="line"/>
      <point x="756" y="900" type="line"/>
      <point x="756" y="255" type="line"/>
      <point x="126" y="930" type="line"/>
      <point x="126" y="0" type="line"/>
      <point x="234" y="0" type="line"/>
      <point x="234" y="645" type="line"/>
    </contour>
    <contour>
      <point x="1230" y="108" type="curve" smooth="yes"/>
      <point x="1273" y="108"/>
      <point x="1305" y="141"/>
      <point x="1305" y="183" type="curve" smooth="yes"/>
      <point x="1305" y="225"/>
      <point x="1273" y="258"/>
      <point x="1230" y="258" type="curve" smooth="yes"/>
      <point x="1188" y="258"/>
      <point x="1155" y="225"/>
      <point x="1155" y="183" type="curve" smooth="yes"/>
      <point x="1155" y="141"/>
      <point x="1188" y="108"/>
    </contour>
    <contour>
      <point x="1230" y="408" type="curve" smooth="yes"/>
      <point x="1340" y="408"/>
      <point x="1428" y="494"/>
      <point x="1428" y="600" type="curve" smooth="yes"/>
      <point x="1428" y="706"/>
      <point x="1340" y="792"/>
      <point x="1230" y="792" type="curve" smooth="yes"/>
      <point x="1120" y="792"/>
      <point x="1032" y="706"/>
      <point x="1032" y="600" type="curve" smooth="yes"/>
      <point x="1032" y="494"/>
      <point x="1120" y="408"/>
    </contour>
    <contour>
      <point x="1230" y="489" type="curve" smooth="yes"/>
      <point x="1166" y="489"/>
      <point x="1116" y="539"/>
      <point x="1116" y="600" type="curve" smooth="yes"/>
      <point x="1116" y="661"/>
      <point x="1166" y="711"/>
      <point x="1230" y="711" type="curve" smooth="yes"/>
      <point x="1293" y="711"/>
      <point x="1344" y="661"/>
      <point x="1344" y="600" type="curve" smooth="yes"/>
      <point x="1344" y="539"/>
      <point x="1293" y="489"/>
    </contour>
  </outline>
</glyph>
<glyph name="lessequal" format="2">
  <advance width="750"/>
  <unicode hex="2264"/>
  <outline>
    <contour>
      <point x="660" y="218" type="line"/>
      <point x="660" y="316" type="line"/>
      <point x="360" y="460" type="line" smooth="yes"/>
      <point x="323" y="478"/>
      <point x="280" y="495"/>
      <point x="239" y="511" type="curve"/>
      <point x="280" y="528"/>
      <point x="323" y="545"/>
      <point x="360" y="563" type="curve" smooth="yes"/>
      <point x="660" y="708" type="line"/>
      <point x="660" y="804" type="line"/>
      <point x="60" y="510" type="line"/>
    </contour>
    <contour>
      <point x="90" y="77" type="line"/>
      <point x="660" y="77" type="line"/>
      <point x="660" y="163" type="line"/>
      <point x="90" y="163" type="line"/>
    </contour>
  </outline>
</glyph>
<glyph name="braceright.titl" format="2">
  <advance width="480"/>
  <outline>
    <contour>
      <point x="71" y="-186" type="line"/>
      <point x="219" y="-186"/>
      <point x="317" y="-107"/>
      <point x="317" y="62" type="curve" smooth="yes"/>
      <point x="317" y="121"/>
      <point x="305" y="198"/>
      <point x="305" y="241" type="curve" smooth="yes"/>
      <point x="305" y="323"/>
      <point x="348" y="354"/>
      <point x="438" y="390" type="curve"/>
      <point x="348" y="426"/>
      <point x="305" y="457"/>
      <point x="305" y="539" type="curve" smooth="yes"/>
      <point x="305" y="582"/>
      <point x="317" y="659"/>
      <point x="317" y="718" type="curve" smooth="yes"/>
      <point x="317" y="887"/>
      <point x="219" y="966"/>
      <point x="71" y="966" type="curve"/>
      <point x="60" y="918" type="line"/>
      <point x="189" y="918"/>
      <point x="259" y="862"/>
      <point x="259" y="709" type="curve" smooth="yes"/>
      <point x="259" y="647"/>
      <point x="247" y="578"/>
      <point x="247" y="536" type="curve" smooth="yes"/>
      <point x="247" y="451"/>
      <point x="297" y="384"/>
      <point x="395" y="384" type="curve"/>
      <point x="395" y="396" type="line"/>
      <point x="297" y="396"/>
      <point x="247" y="329"/>
      <point x="247" y="244" type="curve" smooth="yes"/>
      <point x="247" y="202"/>
      <point x="259" y="133"/>
      <point x="259" y="71" type="curve" smooth="yes"/>
      <point x="259" y="-82"/>
      <point x="188" y="-138"/>
      <point x="60" y="-138" type="curve"/>
    </contour>
  </outline>
</glyph>
<glyph name="endash.titl.case" format="2">
  <advance width="720"/>
  <outline>
    <contour>
      <point x="60" y="423" type="line"/>
      <point x="660" y="423" type="line"/>
      <point x="660" y="477" type="line"/>
      <point x="60" y="477" type="line"/>
    </contour>
  </outline>
</glyph>
